<svg xmlns="http://www.w3.org/2000/svg" width="1001" height="623" viewBox="0 0 1001 623" version="1.1"><path d="M 474.500 0.586 C 472.300 0.791, 463.525 1.447, 455 2.043 C 386.002 6.870, 319.237 22.494, 259.500 47.793 C 250.580 51.571, 226.918 63.531, 218.055 68.742 C 182.158 89.847, 158.030 109.932, 134.205 138.543 C 123.819 151.015, 110.300 174.922, 104.541 191 C 100.240 203.009, 97.156 217.281, 95.929 230.855 C 94.976 241.401, 94.312 244.420, 91.894 249.210 C 90.302 252.363, 89 255.181, 89 255.471 C 89 255.762, 267.425 256, 485.500 256 L 882 256 882 249.724 C 882 220.394, 869.051 182.381, 848.535 151.487 C 804.316 84.899, 729.494 36.987, 633 13.469 C 622.241 10.846, 599.008 6.407, 591.500 5.539 C 588.750 5.221, 585.375 4.743, 584 4.476 C 571.652 2.078, 549.758 0.806, 516 0.525 C 495.375 0.353, 476.700 0.380, 474.500 0.586 M 548 94.487 C 542.432 96.284, 538 100.280, 538 103.505 C 538 111.023, 557.446 108.902, 563.398 100.735 L 565.414 97.969 563.319 95.874 C 560.628 93.184, 553.921 92.576, 548 94.487 M 407.825 107.400 C 402.846 109.179, 396.126 114.648, 395.409 117.507 C 394.225 122.222, 395.183 123.478, 400.207 123.803 C 407.315 124.261, 416.852 118.733, 418.852 112.994 C 419.759 110.392, 419.623 109.623, 417.961 107.961 C 415.699 105.699, 413.006 105.550, 407.825 107.400 M 669.750 117.080 C 665.808 119.376, 669.448 125.937, 676.421 129.104 C 681.068 131.214, 690.965 131.635, 692.800 129.800 C 696.240 126.360, 690.863 119.167, 683.277 117.060 C 678.522 115.739, 672.035 115.749, 669.750 117.080 M 300.382 119.403 C 291.912 123.346, 289.241 129.615, 295.011 132.005 C 302.655 135.171, 318 127.759, 318 120.900 C 318 116.485, 308.400 115.669, 300.382 119.403 M 614.248 139.880 C 601.255 144.368, 600.544 153, 613.166 153 C 626.223 153, 636.581 143.230, 627.532 139.449 C 623.063 137.582, 620.676 137.659, 614.248 139.880 M 480 140.501 C 476.382 144.859, 478.541 158.268, 483.689 163.416 C 488.147 167.874, 491.913 165.949, 492.719 158.801 C 493.977 147.641, 484.905 134.589, 480 140.501 M 339.200 171.200 C 334.569 175.831, 344.360 184.769, 355.134 185.746 C 363.826 186.534, 366.418 183.344, 361.829 177.510 C 357.357 171.824, 342.671 167.729, 339.200 171.200 M 540.009 171.489 C 537.797 174.154, 539.749 179.817, 544.705 185.115 C 552.261 193.194, 560 194.052, 560 186.812 C 560 183.140, 558.634 180.431, 554.630 176.165 C 549.158 170.334, 542.686 168.264, 540.009 171.489 M 436.325 185.880 C 430.736 189.928, 426.204 198.957, 427.896 202.671 C 428.934 204.949, 429.496 205.181, 432.709 204.660 C 440.098 203.461, 448.269 193.874, 447.759 187 C 447.520 183.774, 447.223 183.477, 443.966 183.202 C 441.325 182.980, 439.393 183.657, 436.325 185.880 M 672.250 185.481 C 669.455 187.509, 669.421 188.995, 672.095 192.393 C 675 196.087, 681.280 199.070, 687.501 199.712 C 691.950 200.171, 693.069 199.931, 694.873 198.127 C 697.511 195.489, 697.514 194.923, 694.905 191.607 C 690.234 185.668, 676.945 182.075, 672.250 185.481 M 880.084 469.258 C 872.144 478.213, 859.229 482.579, 836.552 483.976 C 828.274 484.486, 761.650 485.137, 688.500 485.423 C 615.350 485.710, 496.775 486.436, 425 487.037 C 353.225 487.639, 260.300 487.980, 218.500 487.796 C 143.415 487.466, 142.405 487.435, 134.590 485.231 C 124.229 482.309, 116.659 478.781, 111.265 474.361 C 108.859 472.389, 106.759 470.939, 106.598 471.138 C 105.500 472.494, 104.001 487.847, 104.004 497.693 C 104.011 518.930, 108.321 536.968, 117.794 555.415 C 132.435 583.923, 158.405 606.166, 189 616.402 C 210.331 623.538, 186.596 623.053, 500.011 622.762 L 782.500 622.500 792.764 619.687 C 836.542 607.691, 868.048 578.520, 881.894 537.163 C 886.231 524.209, 888.001 512.889, 887.997 498.119 C 887.994 486.668, 885.886 469.205, 884.178 466.486 C 883.767 465.830, 882.158 466.919, 880.084 469.258" stroke="none" fill="#f6c847" fill-rule="evenodd"/><path d="M 197.500 374.657 C 183.631 376.303, 176.497 377.639, 163.500 381.025 C 145.423 385.734, 133.786 387.801, 116.639 389.351 L 103.729 390.518 100.914 395.509 C 96.328 403.637, 95 410.716, 95 427.026 C 95 443.434, 96.060 450.816, 99.546 458.699 C 102.624 465.659, 104.581 468.080, 111.136 473.032 C 119.193 479.120, 127.498 482.833, 138.550 485.289 C 148.499 487.500, 148.507 487.500, 249 487.243 C 304.275 487.101, 401.025 486.541, 464 485.998 C 526.975 485.456, 635.425 484.757, 705 484.445 C 774.575 484.134, 836.362 483.441, 842.303 482.906 C 861.551 481.173, 874.008 475.800, 881.974 465.796 C 887.898 458.355, 888.354 455.603, 887.577 432 C 886.859 410.203, 885.442 401.174, 881.693 394.500 C 879.149 389.971, 879.370 390.044, 860.500 387.484 C 853.900 386.589, 841.525 384.075, 833 381.896 C 796.122 372.474, 785.069 372.422, 749.500 381.503 C 734.859 385.242, 724.389 387.115, 704.250 389.598 C 701.913 389.887, 700 390.253, 700 390.413 C 700 390.573, 695.050 404.582, 689 421.545 C 682.950 438.508, 678 452.525, 678 452.693 C 678 453.857, 665.555 449.620, 586.784 421.637 L 498.500 390.273 487.243 389.618 C 473.054 388.793, 456.249 385.946, 439.293 381.493 C 405.197 372.540, 392.622 372.541, 357.500 381.498 C 332.785 387.802, 320.833 389.435, 299.500 389.425 C 278.443 389.415, 267.770 387.952, 242 381.543 C 219.974 376.065, 205.070 373.759, 197.500 374.657" stroke="none" fill="#7b4d3d" fill-rule="evenodd"/><path d="M 548 94.487 C 542.432 96.284, 538 100.280, 538 103.505 C 538 111.023, 557.446 108.902, 563.398 100.735 L 565.414 97.969 563.319 95.874 C 560.628 93.184, 553.921 92.576, 548 94.487 M 407.825 107.400 C 402.846 109.179, 396.126 114.648, 395.409 117.507 C 394.225 122.222, 395.183 123.478, 400.207 123.803 C 407.315 124.261, 416.852 118.733, 418.852 112.994 C 419.759 110.392, 419.623 109.623, 417.961 107.961 C 415.699 105.699, 413.006 105.550, 407.825 107.400 M 669.750 117.080 C 665.808 119.376, 669.448 125.937, 676.421 129.104 C 681.068 131.214, 690.965 131.635, 692.800 129.800 C 696.240 126.360, 690.863 119.167, 683.277 117.060 C 678.522 115.739, 672.035 115.749, 669.750 117.080 M 300.382 119.403 C 291.912 123.346, 289.241 129.615, 295.011 132.005 C 302.655 135.171, 318 127.759, 318 120.900 C 318 116.485, 308.400 115.669, 300.382 119.403 M 614.248 139.880 C 601.255 144.368, 600.544 153, 613.166 153 C 626.223 153, 636.581 143.230, 627.532 139.449 C 623.063 137.582, 620.676 137.659, 614.248 139.880 M 480 140.501 C 476.382 144.859, 478.541 158.268, 483.689 163.416 C 488.147 167.874, 491.913 165.949, 492.719 158.801 C 493.977 147.641, 484.905 134.589, 480 140.501 M 339.200 171.200 C 334.569 175.831, 344.360 184.769, 355.134 185.746 C 363.826 186.534, 366.418 183.344, 361.829 177.510 C 357.357 171.824, 342.671 167.729, 339.200 171.200 M 540.009 171.489 C 537.797 174.154, 539.749 179.817, 544.705 185.115 C 552.261 193.194, 560 194.052, 560 186.812 C 560 183.140, 558.634 180.431, 554.630 176.165 C 549.158 170.334, 542.686 168.264, 540.009 171.489 M 436.325 185.880 C 430.736 189.928, 426.204 198.957, 427.896 202.671 C 428.934 204.949, 429.496 205.181, 432.709 204.660 C 440.098 203.461, 448.269 193.874, 447.759 187 C 447.520 183.774, 447.223 183.477, 443.966 183.202 C 441.325 182.980, 439.393 183.657, 436.325 185.880 M 672.250 185.481 C 669.455 187.509, 669.421 188.995, 672.095 192.393 C 675 196.087, 681.280 199.070, 687.501 199.712 C 691.950 200.171, 693.069 199.931, 694.873 198.127 C 697.511 195.489, 697.514 194.923, 694.905 191.607 C 690.234 185.668, 676.945 182.075, 672.250 185.481 M 589.500 374.657 C 575.879 376.273, 568.243 377.725, 553.500 381.502 C 544.150 383.898, 530.875 386.600, 524 387.509 C 517.125 388.417, 509.367 389.461, 506.760 389.830 C 502.196 390.475, 505.238 391.646, 589.260 421.569 C 637.242 438.656, 676.619 452.562, 676.765 452.470 C 676.998 452.324, 699 391.009, 699 390.507 C 699 390.399, 692.813 390.023, 685.250 389.671 C 668.407 388.886, 652.377 386.312, 632 381.121 C 612.303 376.103, 596.968 373.771, 589.500 374.657" stroke="none" fill="#ffff66" fill-rule="evenodd"/><path d="M 184 333.613 C 171.470 335.116, 158.478 337.590, 143.125 341.399 C 133.431 343.804, 120.662 346.339, 114.750 347.031 L 104 348.291 104 369.293 L 104 390.295 113.700 389.613 C 129.251 388.520, 143.301 386.134, 161.500 381.496 C 196.897 372.474, 205.556 372.479, 242 381.543 C 267.770 387.952, 278.443 389.415, 299.500 389.425 C 320.833 389.435, 332.785 387.802, 357.500 381.498 C 392.622 372.541, 405.197 372.540, 439.293 381.493 C 482.162 392.750, 509.869 392.513, 557.500 380.482 C 589.610 372.371, 599.384 372.439, 633.500 381.008 C 659.010 387.414, 672.682 389.340, 693 389.387 C 712.711 389.433, 725.252 387.682, 749.500 381.498 C 784.622 372.541, 797.197 372.540, 831.293 381.493 C 847.475 385.742, 864.165 388.648, 877.750 389.582 L 888 390.286 888 369.259 L 888 348.233 881.250 347.569 C 871.267 346.588, 859.535 344.334, 844.703 340.547 C 822.022 334.757, 811.936 333.492, 789 333.564 C 765.825 333.637, 757.872 334.696, 732.632 341.073 C 697.531 349.941, 685.183 349.860, 648.607 340.522 C 626.025 334.758, 615.914 333.492, 593 333.564 C 569.825 333.637, 561.872 334.696, 536.632 341.073 C 501.531 349.941, 489.183 349.860, 452.607 340.522 C 430.025 334.758, 419.914 333.492, 397 333.564 C 373.825 333.637, 365.872 334.696, 340.632 341.073 C 306.032 349.814, 291.915 349.793, 258.500 340.949 C 238.903 335.762, 225.124 333.824, 205.500 333.495 C 195.600 333.329, 185.925 333.382, 184 333.613" stroke="none" fill="#39aa1a" fill-rule="evenodd"/><path d="M 376.005 275.752 C 370.270 278.621, 367.636 284.662, 367.174 296 C 366.705 307.534, 368.021 312.961, 372.461 317.806 C 375.651 321.287, 376.132 321.465, 383.151 321.751 C 389.295 322.002, 391.238 321.665, 395 319.699 L 399.500 317.347 399.785 307.173 L 400.070 297 392.035 297 L 384 297 384 301 C 384 304.905, 384.083 305, 387.500 305 C 390.827 305, 391 305.172, 391 308.465 C 391 312.518, 388.614 314.290, 383.803 313.810 C 378.270 313.258, 376.750 309.804, 376.750 297.781 C 376.750 286.594, 377.784 283.362, 381.678 282.373 C 385.101 281.503, 387.677 282.806, 389.040 286.096 C 390.227 288.963, 390.515 289.090, 394.397 288.449 C 396.654 288.076, 398.667 287.619, 398.870 287.432 C 399.074 287.246, 398.947 285.532, 398.589 283.623 C 398.178 281.434, 396.645 279.017, 394.434 277.076 C 391.395 274.408, 390.172 274, 385.215 274.002 C 381.776 274.002, 378.108 274.699, 376.005 275.752 M 124 298 L 124 321 133.532 321 C 145.295 321, 149.472 319.508, 151.536 314.568 C 154.244 308.086, 152.596 300.460, 147.949 297.973 C 145.944 296.900, 145.951 296.847, 148.459 293.866 C 152.399 289.184, 152.047 282.847, 147.600 278.400 L 144.200 275 134.100 275 L 124 275 124 298 M 204.056 292.750 C 204.091 303.752, 204.567 311.818, 205.306 313.965 C 207.091 319.146, 211.991 322, 219.101 322 C 226.377 322, 229.451 320.618, 232.275 316.078 C 234.330 312.774, 234.526 311.065, 234.844 293.750 L 235.187 275 230.094 275 L 225 275 225 292.929 C 225 312.948, 224.563 314.384, 218.647 313.804 C 213.690 313.318, 213.031 310.741, 213.015 291.750 L 213 275 208.500 275 L 204 275 204.056 292.750 M 287 297.914 L 287 321 291.500 321 L 296 321 296 311.500 C 296 303.933, 296.291 302, 297.429 302 C 299.724 302, 301.839 304.724, 306.061 313.121 L 310.022 321 315.011 321 C 317.755 321, 320 320.766, 320 320.480 C 320 319.271, 310.967 302.098, 310.025 301.515 C 309.429 301.147, 310.256 299.814, 311.978 298.365 C 318.034 293.269, 318.257 283.412, 312.439 277.940 C 310.056 275.698, 308.916 275.473, 298.422 275.164 L 287 274.828 287 297.914 M 451 298 L 451 321 464.060 321 L 477.121 321 476.810 317.250 L 476.500 313.500 468.750 313.208 L 461 312.916 461 306.958 L 461 301 467.500 301 L 474 301 474 297 L 474 293 467.500 293 L 461 293 461 288.044 L 461 283.088 468.250 282.794 L 475.500 282.500 475.810 278.750 L 476.121 275 463.560 275 L 451 275 451 298 M 527 297.914 L 527 321 531.500 321 L 536 321 536 311.500 C 536 303.933, 536.291 302, 537.429 302 C 539.724 302, 541.839 304.724, 546.061 313.121 L 550.022 321 555.011 321 C 557.755 321, 560 320.766, 560 320.480 C 560 319.271, 550.967 302.098, 550.025 301.515 C 549.429 301.147, 550.256 299.814, 551.978 298.365 C 558.034 293.269, 558.257 283.412, 552.439 277.940 C 550.056 275.698, 548.916 275.473, 538.422 275.164 L 527 274.828 527 297.914 M 608 298 L 608 321 612.473 321 L 616.947 321 617.223 306.250 L 617.500 291.500 620.310 304.500 C 621.855 311.650, 623.348 318.288, 623.627 319.250 C 624.012 320.576, 625.205 321, 628.548 321 C 632.291 321, 633.048 320.658, 633.526 318.750 C 633.837 317.512, 635.596 310.425, 637.435 303 L 640.779 289.500 640.889 305.250 L 641 321 645.500 321 L 650 321 650 298 L 650 275 643.250 275.001 L 636.500 275.002 633.118 288.251 C 631.258 295.538, 629.435 302.072, 629.067 302.770 C 628.699 303.469, 626.886 297.506, 625.039 289.520 L 621.680 275 614.840 275 L 608 275 608 298 M 702 298 L 702 321 707 321 L 712 321 712 298 L 712 275 707 275 L 702 275 702 298 M 764 298 L 764 321 777.500 321 L 791 321 791 317 L 791 313 782.500 313 L 774 313 774 294 L 774 275 769 275 L 764 275 764 298 M 840 298 L 840 321 852.560 321 L 865.121 321 864.810 317.250 L 864.500 313.500 856.750 313.208 L 849 312.916 849 306.958 L 849 301 856 301 L 863 301 863 297 L 863 293 856 293 L 849 293 849 288 L 849 283 856.500 283 L 864 283 864 279 L 864 275 852 275 L 840 275 840 298 M 134 288.500 C 134 293.104, 134.290 294, 135.777 294 C 138.892 294, 142 291.075, 142 288.143 C 142 284.644, 140.337 283, 136.800 283 C 134.073 283, 134 283.143, 134 288.500 M 296 289.128 L 296 295.256 300.200 294.584 C 305.653 293.712, 307 292.489, 307 288.413 C 307 284.505, 304.932 283, 299.566 283 L 296 283 296 289.128 M 536 289.128 L 536 295.256 540.200 294.584 C 545.653 293.712, 547 292.489, 547 288.413 C 547 284.505, 544.932 283, 539.566 283 L 536 283 536 289.128 M 134 307.500 L 134 313 137.300 313 C 141.421 313, 143 311.476, 143 307.500 C 143 303.524, 141.421 302, 137.300 302 L 134 302 134 307.500 M 679.312 484.748 C 688.009 484.915, 701.959 484.915, 710.312 484.748 C 718.666 484.581, 711.550 484.444, 694.500 484.445 C 677.450 484.445, 670.616 484.582, 679.312 484.748 M 544.250 485.747 C 550.712 485.921, 561.288 485.921, 567.750 485.747 C 574.212 485.573, 568.925 485.430, 556 485.430 C 543.075 485.430, 537.788 485.573, 544.250 485.747 M 417.306 486.747 C 423.800 486.922, 434.150 486.921, 440.306 486.746 C 446.463 486.571, 441.150 486.428, 428.500 486.429 C 415.850 486.429, 410.813 486.573, 417.306 486.747 M 272.250 487.748 C 280.913 487.915, 295.087 487.915, 303.750 487.748 C 312.413 487.582, 305.325 487.445, 288 487.445 C 270.675 487.445, 263.587 487.582, 272.250 487.748" stroke="none" fill="#a3641e" fill-rule="evenodd"/><path d="M 751.320 484.749 C 766.072 484.905, 789.922 484.905, 804.320 484.749 C 818.719 484.593, 806.650 484.465, 777.500 484.466 C 748.350 484.466, 736.569 484.593, 751.320 484.749 M 591.191 485.747 C 598.171 485.918, 609.871 485.919, 617.191 485.748 C 624.511 485.577, 618.800 485.436, 604.500 485.436 C 590.200 485.435, 584.211 485.575, 591.191 485.747 M 464.310 486.748 C 471.905 486.918, 484.055 486.918, 491.310 486.747 C 498.564 486.576, 492.350 486.437, 477.500 486.438 C 462.650 486.438, 456.714 486.578, 464.310 486.748 M 331.750 487.747 C 339.038 487.918, 350.962 487.918, 358.250 487.747 C 365.538 487.577, 359.575 487.437, 345 487.437 C 330.425 487.437, 324.462 487.577, 331.750 487.747" stroke="none" fill="#f1c943" fill-rule="evenodd"/></svg>